<svg width="127" height="19" viewBox="0 0 127 19" fill="none" xmlns="http://www.w3.org/2000/svg">
<path fill-rule="evenodd" clip-rule="evenodd" d="M15.6222 0.422243H10.5556L0 18.5778H5.06667L7.27596 14.7778H15.6222V18.5778H20.6889V0.422243H15.6222ZM15.6222 0.422243V10.5556H9.73075L15.6222 0.422243ZM40.1111 0.422243V18.5778H35.0444V4.64447H28.2889V18.5778H23.2222V0.422243H40.1111ZM43.0667 0.422243V18.5778H48.1333V14.7778H54.0444C58.0086 14.7778 61.2222 11.5642 61.2222 7.60002C61.2222 3.63584 58.0086 0.422243 54.0444 0.422243H43.0667ZM56.1556 7.60002C56.1556 5.96771 54.8323 4.64447 53.2 4.64447H48.1333V10.5556H53.2C54.8323 10.5556 56.1556 9.23233 56.1556 7.60002Z" fill="#466CAE"/>
<path d="M82.4061 3.03122H81.1271L80.8595 3.8H80.2631L81.5104 0.498093H82.0252L83.2747 3.8H82.676L82.4061 3.03122ZM81.2881 2.56859H82.2451L81.7666 1.19884L81.2881 2.56859Z" fill="#466CAE"/>
<path d="M85.7625 0.960723H84.2385V3.8H83.667V0.498093H85.7625V0.960723Z" fill="#466CAE"/>
<path d="M88.1709 2.32594H86.8147V3.34191H88.3999V3.8H86.241V0.498093H88.384V0.960723H86.8147V1.87238H88.1709V2.32594Z" fill="#466CAE"/>
<path d="M91.4887 3.8H90.9172V2.33274H89.4408V3.8H88.8671V0.498093H89.4408V1.87238H90.9172V0.498093H91.4887V3.8Z" fill="#466CAE"/>
<path d="M94.6885 2.72507C94.6553 3.07733 94.5252 3.35249 94.2985 3.55054C94.0717 3.74709 93.7701 3.84536 93.3936 3.84536C93.1305 3.84536 92.8985 3.78337 92.6974 3.6594C92.4978 3.53391 92.3436 3.35627 92.2348 3.12647C92.1259 2.89666 92.0692 2.62982 92.0647 2.32594V2.01752C92.0647 1.70607 92.1199 1.43167 92.2302 1.19431C92.3406 0.956943 92.4986 0.774008 92.7042 0.6455C92.9113 0.516991 93.1502 0.452737 93.4208 0.452737C93.7852 0.452737 94.0785 0.551764 94.3007 0.749818C94.523 0.947872 94.6522 1.22757 94.6885 1.5889H94.117C94.0898 1.35154 94.0203 1.1807 93.9084 1.07638C93.798 0.97055 93.6355 0.917635 93.4208 0.917635C93.1714 0.917635 92.9794 1.0091 92.8448 1.19204C92.7118 1.37346 92.6437 1.64031 92.6407 1.99257V2.28512C92.6407 2.64192 92.7042 2.91405 92.8312 3.10152C92.9597 3.28899 93.1472 3.38273 93.3936 3.38273C93.6189 3.38273 93.7882 3.33208 93.9016 3.23079C94.015 3.12949 94.0868 2.96092 94.117 2.72507H94.6885Z" fill="#466CAE"/>
<path d="M97.521 0.960723H96.4914V3.8H95.9222V0.960723H94.9017V0.498093H97.521V0.960723Z" fill="#466CAE"/>
<path d="M97.9564 3.8V0.498093H99.088C99.4615 0.498093 99.7457 0.57293 99.9407 0.722605C100.136 0.872279 100.233 1.09528 100.233 1.3916C100.233 1.54279 100.192 1.67886 100.111 1.79981C100.029 1.92076 99.9097 2.01449 99.7525 2.08101C99.9309 2.12939 100.068 2.22086 100.165 2.35542C100.264 2.48846 100.313 2.64872 100.313 2.83619C100.313 3.14612 100.213 3.38424 100.013 3.55054C99.8153 3.71685 99.531 3.8 99.1606 3.8H97.9564ZM98.5302 2.31006V3.34191H99.1674C99.3473 3.34191 99.4879 3.29731 99.5892 3.20811C99.6905 3.11891 99.7412 2.99494 99.7412 2.83619C99.7412 2.493 99.5658 2.31762 99.215 2.31006H98.5302ZM98.5302 1.88825H99.0926C99.271 1.88825 99.4101 1.84819 99.5099 1.76806C99.6112 1.68642 99.6618 1.57152 99.6618 1.42335C99.6618 1.26007 99.6149 1.14215 99.5212 1.06958C99.429 0.997008 99.2846 0.960723 99.088 0.960723H98.5302V1.88825Z" fill="#466CAE"/>
<path d="M103.522 2.23522C103.522 2.55876 103.466 2.84299 103.354 3.08791C103.242 3.33133 103.082 3.5188 102.873 3.65033C102.666 3.78035 102.427 3.84536 102.156 3.84536C101.889 3.84536 101.65 3.78035 101.44 3.65033C101.231 3.5188 101.069 3.33208 100.954 3.09018C100.841 2.84828 100.784 2.56935 100.782 2.25337V2.06741C100.782 1.74538 100.839 1.46115 100.952 1.21472C101.067 0.968282 101.228 0.780055 101.435 0.650035C101.644 0.518503 101.883 0.452737 102.152 0.452737C102.421 0.452737 102.659 0.517747 102.866 0.647767C103.075 0.776276 103.236 0.962235 103.349 1.20564C103.463 1.44754 103.52 1.72951 103.522 2.05153V2.23522ZM102.948 2.06287C102.948 1.697 102.878 1.41655 102.739 1.22152C102.602 1.02649 102.406 0.928974 102.152 0.928974C101.904 0.928974 101.71 1.02649 101.569 1.22152C101.43 1.41504 101.359 1.68944 101.356 2.04473V2.23522C101.356 2.59807 101.426 2.87852 101.567 3.07658C101.709 3.27463 101.905 3.37366 102.156 3.37366C102.41 3.37366 102.605 3.2769 102.741 3.08338C102.879 2.88986 102.948 2.60714 102.948 2.23522V2.06287Z" fill="#466CAE"/>
<path d="M83.1703 10.9778H82.5988V8.13848H81.1452V10.9778H80.5737V7.67585H83.1703V10.9778Z" fill="#466CAE"/>
<path d="M84.438 9.75088V10.9778H83.8643V7.67585H85.1274C85.4963 7.67585 85.7889 7.77185 86.0051 7.96386C86.2228 8.15586 86.3316 8.40986 86.3316 8.72584C86.3316 9.04937 86.225 9.3011 86.0119 9.48101C85.8002 9.66092 85.5031 9.75088 85.1206 9.75088H84.438ZM84.438 9.29052H85.1274C85.3315 9.29052 85.4872 9.24289 85.5946 9.14765C85.7019 9.05089 85.7556 8.91179 85.7556 8.73037C85.7556 8.55197 85.7012 8.40986 85.5923 8.30403C85.4835 8.19668 85.3338 8.1415 85.1433 8.13848H84.438V9.29052Z" fill="#466CAE"/>
<path d="M89.4702 9.41298C89.4702 9.73652 89.4143 10.0207 89.3024 10.2657C89.1906 10.5091 89.0303 10.6966 88.8217 10.8281C88.6145 10.9581 88.3757 11.0231 88.105 11.0231C87.8374 11.0231 87.5986 10.9581 87.3884 10.8281C87.1798 10.6966 87.018 10.5098 86.9031 10.2679C86.7897 10.026 86.7323 9.7471 86.7308 9.43112V9.24516C86.7308 8.92313 86.7874 8.6389 86.9008 8.39247C87.0157 8.14604 87.1768 7.95781 87.3839 7.82779C87.5925 7.69626 87.8314 7.63049 88.1005 7.63049C88.3696 7.63049 88.6077 7.6955 88.8148 7.82552C89.0235 7.95403 89.1845 8.13999 89.2979 8.3834C89.4113 8.6253 89.4687 8.90726 89.4702 9.22929V9.41298ZM88.8965 9.24063C88.8965 8.87475 88.827 8.5943 88.6879 8.39927C88.5503 8.20424 88.3545 8.10673 88.1005 8.10673C87.8525 8.10673 87.6583 8.20424 87.5177 8.39927C87.3786 8.59279 87.3075 8.8672 87.3045 9.22248V9.41298C87.3045 9.77582 87.3748 10.0563 87.5154 10.2543C87.6575 10.4524 87.8541 10.5514 88.105 10.5514C88.359 10.5514 88.5541 10.4547 88.6901 10.2611C88.8277 10.0676 88.8965 9.7849 88.8965 9.41298V9.24063Z" fill="#466CAE"/>
<path d="M90.7856 7.67585L91.738 10.2067L92.6882 7.67585H93.4298V10.9778H92.8583V9.88921L92.915 8.43329L91.9399 10.9778H91.5294L90.5565 8.43556L90.6132 9.88921V10.9778H90.0417V7.67585H90.7856Z" fill="#466CAE"/>
<path d="M94.6998 8.93901H95.3756C95.6175 8.93901 95.8284 8.98058 96.0083 9.06374C96.1882 9.14689 96.325 9.26481 96.4188 9.41751C96.5125 9.57021 96.5594 9.7471 96.5594 9.94818C96.5594 10.2566 96.4543 10.5045 96.2441 10.692C96.0355 10.8795 95.7505 10.9747 95.3892 10.9778H94.126V7.67585H94.6998V8.93901ZM97.4574 10.9778H96.8859V7.67585H97.4574V10.9778ZM94.6998 9.39937V10.5197H95.3733C95.5668 10.5197 95.7173 10.4675 95.8246 10.3632C95.9335 10.2574 95.9879 10.1175 95.9879 9.94364C95.9879 9.77734 95.935 9.6458 95.8291 9.54905C95.7233 9.45229 95.5767 9.4024 95.3892 9.39937H94.6998Z" fill="#466CAE"/>
<path d="M98.7455 7.67585V10.5197H99.7524V7.67585H100.324V10.5197H101.324V7.67585H101.895V10.9778H98.1695V7.67585H98.7455Z" fill="#466CAE"/>
<path d="M105.216 7.67585V10.9778H104.644V8.13848H103.633L103.574 9.41525C103.551 9.81438 103.502 10.1243 103.426 10.345C103.352 10.5643 103.244 10.7245 103.102 10.8258C102.96 10.9271 102.769 10.9778 102.53 10.9778H102.385V10.5197L102.476 10.5129C102.608 10.5008 102.709 10.4547 102.78 10.3745C102.853 10.2944 102.907 10.1734 102.943 10.0117C102.981 9.84839 103.007 9.60876 103.023 9.29278L103.086 7.67585H105.216Z" fill="#466CAE"/>
<path d="M107.837 9.50369H106.481V10.5197H108.066V10.9778H105.907V7.67585H108.05V8.13848H106.481V9.05013H107.837V9.50369Z" fill="#466CAE"/>
<path d="M111.155 10.9778H110.583V9.51049H109.107V10.9778H108.533V7.67585H109.107V9.05013H110.583V7.67585H111.155V10.9778Z" fill="#466CAE"/>
<path d="M114.457 10.9778H113.885V9.51049H112.409V10.9778H111.835V7.67585H112.409V9.05013H113.885V7.67585H114.457V10.9778Z" fill="#466CAE"/>
<path d="M117.772 9.41298C117.772 9.73652 117.716 10.0207 117.605 10.2657C117.493 10.5091 117.332 10.6966 117.124 10.8281C116.917 10.9581 116.678 11.0231 116.407 11.0231C116.14 11.0231 115.901 10.9581 115.69 10.8281C115.482 10.6966 115.32 10.5098 115.205 10.2679C115.092 10.026 115.034 9.7471 115.033 9.43112V9.24516C115.033 8.92313 115.09 8.6389 115.203 8.39247C115.318 8.14604 115.479 7.95781 115.686 7.82779C115.895 7.69626 116.133 7.63049 116.403 7.63049C116.672 7.63049 116.91 7.6955 117.117 7.82552C117.326 7.95403 117.487 8.13999 117.6 8.3834C117.713 8.6253 117.771 8.90726 117.772 9.22929V9.41298ZM117.199 9.24063C117.199 8.87475 117.129 8.5943 116.99 8.39927C116.852 8.20424 116.657 8.10673 116.403 8.10673C116.155 8.10673 115.96 8.20424 115.82 8.39927C115.681 8.59279 115.61 8.8672 115.607 9.22248V9.41298C115.607 9.77582 115.677 10.0563 115.817 10.2543C115.96 10.4524 116.156 10.5514 116.407 10.5514C116.661 10.5514 116.856 10.4547 116.992 10.2611C117.13 10.0676 117.199 9.7849 117.199 9.41298V9.24063Z" fill="#466CAE"/>
<path d="M120.455 8.13848H118.931V10.9778H118.36V7.67585H120.455V8.13848Z" fill="#466CAE"/>
<path d="M123.415 9.41298C123.415 9.73652 123.359 10.0207 123.247 10.2657C123.135 10.5091 122.975 10.6966 122.766 10.8281C122.559 10.9581 122.32 11.0231 122.049 11.0231C121.782 11.0231 121.543 10.9581 121.333 10.8281C121.124 10.6966 120.962 10.5098 120.847 10.2679C120.734 10.026 120.677 9.7471 120.675 9.43112V9.24516C120.675 8.92313 120.732 8.6389 120.845 8.39247C120.96 8.14604 121.121 7.95781 121.328 7.82779C121.537 7.69626 121.776 7.63049 122.045 7.63049C122.314 7.63049 122.552 7.6955 122.759 7.82552C122.968 7.95403 123.129 8.13999 123.242 8.3834C123.356 8.6253 123.413 8.90726 123.415 9.22929V9.41298ZM122.841 9.24063C122.841 8.87475 122.771 8.5943 122.632 8.39927C122.495 8.20424 122.299 8.10673 122.045 8.10673C121.797 8.10673 121.603 8.20424 121.462 8.39927C121.323 8.59279 121.252 8.8672 121.249 9.22248V9.41298C121.249 9.77582 121.319 10.0563 121.46 10.2543C121.602 10.4524 121.798 10.5514 122.049 10.5514C122.303 10.5514 122.498 10.4547 122.634 10.2611C122.772 10.0676 122.841 9.7849 122.841 9.41298V9.24063Z" fill="#466CAE"/>
<path d="M81.5539 16.9287V18.1556H80.9801V14.8537H82.2433C82.6122 14.8537 82.9047 14.9497 83.1209 15.1417C83.3386 15.3337 83.4475 15.5877 83.4475 15.9036C83.4475 16.2272 83.3409 16.4789 83.1277 16.6588C82.9161 16.8387 82.619 16.9287 82.2365 16.9287H81.5539ZM81.5539 16.4683H82.2433C82.4474 16.4683 82.6031 16.4207 82.7105 16.3255C82.8178 16.2287 82.8715 16.0896 82.8715 15.9082C82.8715 15.7298 82.817 15.5877 82.7082 15.4818C82.5993 15.3745 82.4497 15.3193 82.2592 15.3163H81.5539V16.4683Z" fill="#466CAE"/>
<path d="M85.3955 17.3868H84.1165L83.8489 18.1556H83.2525L84.4997 14.8537H85.0145L86.2641 18.1556H85.6654L85.3955 17.3868ZM84.2775 16.9242H85.2345L84.756 15.5544L84.2775 16.9242Z" fill="#466CAE"/>
<path d="M88.2915 15.754C88.2915 15.6058 88.2356 15.4879 88.1237 15.4002C88.0118 15.3125 87.8599 15.2687 87.6679 15.2687C87.5031 15.2687 87.3655 15.3125 87.2551 15.4002C87.1447 15.4864 87.0896 15.5982 87.0896 15.7358H86.5181C86.5181 15.5559 86.568 15.3957 86.6678 15.2551C86.7675 15.1145 86.9059 15.0056 87.0828 14.9285C87.2597 14.8499 87.4547 14.8106 87.6679 14.8106C88.0458 14.8106 88.3391 14.893 88.5478 15.0578C88.7579 15.2225 88.863 15.4531 88.863 15.7494C88.863 15.8991 88.8176 16.0367 88.7269 16.1622C88.6362 16.2877 88.5092 16.3867 88.3459 16.4593C88.5304 16.5228 88.671 16.6195 88.7677 16.7495C88.866 16.878 88.9151 17.0383 88.9151 17.2303C88.9151 17.5266 88.8018 17.7625 88.575 17.9379C88.3482 18.1117 88.0458 18.1987 87.6679 18.1987C87.435 18.1987 87.2241 18.1571 87.0351 18.0739C86.8477 17.9908 86.7063 17.8774 86.6111 17.7338C86.5173 17.5901 86.4705 17.4253 86.4705 17.2394H87.0419C87.0419 17.3815 87.1009 17.5017 87.2188 17.6C87.3368 17.6967 87.4864 17.7451 87.6679 17.7451C87.8704 17.7451 88.033 17.6975 88.1554 17.6022C88.2794 17.507 88.3414 17.383 88.3414 17.2303C88.3414 17.0443 88.287 16.9098 88.1781 16.8266C88.0708 16.742 87.9128 16.6996 87.7041 16.6996H87.3163V16.2461H87.6837C88.0889 16.2461 88.2915 16.082 88.2915 15.754Z" fill="#466CAE"/>
<path d="M89.4481 18.1556V14.8537H90.5797C90.9531 14.8537 91.2374 14.9285 91.4324 15.0782C91.6274 15.2278 91.7249 15.4508 91.7249 15.7472C91.7249 15.8984 91.6841 16.0344 91.6025 16.1554C91.5208 16.2763 91.4014 16.3701 91.2442 16.4366C91.4226 16.485 91.5602 16.5764 91.6569 16.711C91.7552 16.844 91.8043 17.0043 91.8043 17.1918C91.8043 17.5017 91.7045 17.7398 91.505 17.9061C91.3069 18.0724 91.0227 18.1556 90.6523 18.1556H89.4481ZM90.0218 16.6656V17.6975H90.6591C90.839 17.6975 90.9796 17.6529 91.0809 17.5637C91.1822 17.4745 91.2328 17.3505 91.2328 17.1918C91.2328 16.8486 91.0574 16.6732 90.7067 16.6656H90.0218ZM90.0218 16.2438H90.5842C90.7626 16.2438 90.9017 16.2037 91.0015 16.1236C91.1028 16.042 91.1535 15.9271 91.1535 15.7789C91.1535 15.6156 91.1066 15.4977 91.0128 15.4251C90.9206 15.3526 90.7762 15.3163 90.5797 15.3163H90.0218V16.2438Z" fill="#466CAE"/>
<path d="M94.4009 14.8537H94.9747V18.1556H94.4009V15.8039L92.9518 18.1556H92.3781V14.8537H92.9518V17.2076L94.4009 14.8537Z" fill="#466CAE"/>
<path d="M97.9795 15.3163H96.9499V18.1556H96.3807V15.3163H95.3602V14.8537H97.9795V15.3163Z" fill="#466CAE"/>
<path d="M100.438 14.8537H101.012V18.1556H100.438V15.8039L98.9887 18.1556H98.4149V14.8537H98.9887V17.2076L100.438 14.8537Z" fill="#466CAE"/>
<path d="M103.327 18.1556V16.9219H102.687L102.05 18.1556H101.436L102.173 16.7518C101.789 16.5704 101.597 16.2733 101.597 15.8606C101.597 15.5446 101.7 15.2989 101.907 15.1235C102.116 14.9466 102.406 14.8567 102.778 14.8537H103.901V18.1556H103.327ZM102.168 15.8855C102.168 16.0715 102.22 16.2166 102.325 16.3209C102.429 16.4252 102.585 16.4774 102.794 16.4774H103.327V15.3163H102.794C102.582 15.3163 102.425 15.3669 102.322 15.4682C102.22 15.5695 102.168 15.7086 102.168 15.8855Z" fill="#466CAE"/>
<path d="M106.484 14.8537L107.436 17.3845L108.386 14.8537H109.128V18.1556H108.557V17.067L108.613 15.6111L107.638 18.1556H107.228L106.255 15.6134L106.311 17.067V18.1556H105.74V14.8537H106.484Z" fill="#466CAE"/>
<path d="M112.444 16.5908C112.444 16.9143 112.388 17.1986 112.276 17.4435C112.164 17.6869 112.004 17.8744 111.795 18.0059C111.588 18.1359 111.349 18.2009 111.078 18.2009C110.811 18.2009 110.572 18.1359 110.362 18.0059C110.153 17.8744 109.991 17.6876 109.876 17.4457C109.763 17.2038 109.706 16.9249 109.704 16.6089V16.423C109.704 16.1009 109.761 15.8167 109.874 15.5703C109.989 15.3238 110.15 15.1356 110.357 15.0056C110.566 14.8741 110.805 14.8083 111.074 14.8083C111.343 14.8083 111.581 14.8733 111.788 15.0033C111.997 15.1318 112.158 15.3178 112.271 15.5612C112.385 15.8031 112.442 16.0851 112.444 16.4071V16.5908ZM111.87 16.4184C111.87 16.0526 111.8 15.7721 111.661 15.5771C111.524 15.3821 111.328 15.2845 111.074 15.2845C110.826 15.2845 110.632 15.3821 110.491 15.5771C110.352 15.7706 110.281 16.045 110.278 16.4003V16.5908C110.278 16.9536 110.348 17.2341 110.489 17.4321C110.631 17.6302 110.827 17.7292 111.078 17.7292C111.332 17.7292 111.527 17.6325 111.663 17.4389C111.801 17.2454 111.87 16.9627 111.87 16.5908V16.4184Z" fill="#466CAE"/>
<path d="M115.535 17.0806C115.501 17.4329 115.371 17.7081 115.144 17.9061C114.918 18.1026 114.616 18.2009 114.24 18.2009C113.977 18.2009 113.744 18.1389 113.543 18.015C113.344 17.8895 113.19 17.7118 113.081 17.482C112.972 17.2522 112.915 16.9854 112.911 16.6815V16.3731C112.911 16.0616 112.966 15.7872 113.076 15.5499C113.187 15.3125 113.345 15.1296 113.55 15.0011C113.757 14.8726 113.996 14.8083 114.267 14.8083C114.631 14.8083 114.924 14.9073 115.147 15.1054C115.369 15.3034 115.498 15.5831 115.535 15.9445H114.963C114.936 15.7071 114.866 15.5363 114.754 15.4319C114.644 15.3261 114.482 15.2732 114.267 15.2732C114.017 15.2732 113.825 15.3647 113.691 15.5476C113.558 15.729 113.49 15.9959 113.487 16.3481V16.6407C113.487 16.9975 113.55 17.2696 113.677 17.4571C113.806 17.6446 113.993 17.7383 114.24 17.7383C114.465 17.7383 114.634 17.6876 114.748 17.5863C114.861 17.4851 114.933 17.3165 114.963 17.0806H115.535Z" fill="#466CAE"/>
<path d="M117.027 16.7405H116.637V18.1556H116.065V14.8537H116.637V16.2415H116.952L117.923 14.8537H118.626L117.492 16.4343L118.725 18.1556H118.036L117.027 16.7405Z" fill="#466CAE"/>
<path d="M119.043 18.1556V14.8537H120.174C120.548 14.8537 120.832 14.9285 121.027 15.0782C121.222 15.2278 121.32 15.4508 121.32 15.7472C121.32 15.8984 121.279 16.0344 121.197 16.1554C121.116 16.2763 120.996 16.3701 120.839 16.4366C121.017 16.485 121.155 16.5764 121.252 16.711C121.35 16.844 121.399 17.0043 121.399 17.1918C121.399 17.5017 121.299 17.7398 121.1 17.9061C120.902 18.0724 120.617 18.1556 120.247 18.1556H119.043ZM119.617 16.6656V17.6975H120.254C120.434 17.6975 120.574 17.6529 120.676 17.5637C120.777 17.4745 120.828 17.3505 120.828 17.1918C120.828 16.8486 120.652 16.6732 120.301 16.6656H119.617ZM119.617 16.2438H120.179C120.357 16.2438 120.496 16.2037 120.596 16.1236C120.698 16.042 120.748 15.9271 120.748 15.7789C120.748 15.6156 120.701 15.4977 120.608 15.4251C120.515 15.3526 120.371 15.3163 120.174 15.3163H119.617V16.2438Z" fill="#466CAE"/>
<path d="M122.562 16.1168H123.238C123.48 16.1168 123.691 16.1584 123.871 16.2415C124.051 16.3247 124.188 16.4426 124.281 16.5953C124.375 16.748 124.422 16.9249 124.422 17.126C124.422 17.4344 124.317 17.6824 124.107 17.8698C123.898 18.0573 123.613 18.1525 123.252 18.1556H121.989V14.8537H122.562V16.1168ZM125.32 18.1556H124.749V14.8537H125.32V18.1556ZM122.562 16.5772V17.6975H123.236C123.429 17.6975 123.58 17.6453 123.687 17.541C123.796 17.4352 123.851 17.2953 123.851 17.1214C123.851 16.9551 123.798 16.8236 123.692 16.7269C123.586 16.6301 123.439 16.5802 123.252 16.5772H122.562Z" fill="#466CAE"/>
<path d="M70.5112 0H70.9334V19H70.5112V0Z" fill="#466CAE"/>
</svg>
