<svg width="17" height="17" viewBox="0 0 17 17" fill="none" xmlns="http://www.w3.org/2000/svg">
<path fill-rule="evenodd" clip-rule="evenodd" d="M14.3848 1.29289L8.02085 7.65685C7.63033 8.04738 7.63033 8.68054 8.02085 9.07107L14.3848 15.435C14.7753 15.8256 15.4085 15.8256 15.799 15.435C16.1895 15.0445 16.1895 14.4113 15.799 14.0208L10.228 8.36395L15.799 2.70711C16.1895 2.31658 16.1895 1.68342 15.799 1.29289C15.4085 0.902369 14.7753 0.902369 14.3848 1.29289Z" fill="white"/>
<path fill-rule="evenodd" clip-rule="evenodd" d="M3.07112 1.29289L9.43508 7.65685C9.82561 8.04738 9.82561 8.68054 9.43508 9.07107L3.07112 15.435C2.6806 15.8256 2.04743 15.8256 1.65691 15.435C1.26638 15.0445 1.26638 14.4113 1.65691 14.0208L7.22797 8.36395L1.65691 2.70711C1.26638 2.31658 1.26638 1.68342 1.65691 1.29289C2.04743 0.902369 2.6806 0.902369 3.07112 1.29289Z" fill="white"/>
</svg>
