<svg width="16" height="16" viewBox="0 0 16 16" fill="none" xmlns="http://www.w3.org/2000/svg">
<path fill-rule="evenodd" clip-rule="evenodd" d="M14.0208 1.29289L7.65684 7.65685C7.26631 8.04738 7.26631 8.68054 7.65684 9.07107L14.0208 15.435C14.4113 15.8256 15.0445 15.8256 15.435 15.435C15.8255 15.0445 15.8255 14.4113 15.435 14.0208L9.86395 8.36395L15.435 2.70711C15.8255 2.31658 15.8255 1.68342 15.435 1.29289C15.0445 0.902369 14.4113 0.902369 14.0208 1.29289Z" fill="white"/>
<path fill-rule="evenodd" clip-rule="evenodd" d="M2.70711 1.29289L9.07107 7.65685C9.46159 8.04738 9.46159 8.68054 9.07107 9.07107L2.70711 15.435C2.31658 15.8256 1.68342 15.8256 1.29289 15.435C0.902369 15.0445 0.902369 14.4113 1.29289 14.0208L6.86395 8.36395L1.29289 2.70711C0.902369 2.31658 0.902369 1.68342 1.29289 1.29289C1.68342 0.902369 2.31658 0.902369 2.70711 1.29289Z" fill="white"/>
</svg>
