<svg width="31" height="38" viewBox="0 0 31 38" fill="none" xmlns="http://www.w3.org/2000/svg">
<rect x="30.5" y="0.5" width="37" height="30" transform="rotate(90 30.5 0.5)" fill="#333333"/>
<path fill-rule="evenodd" clip-rule="evenodd" d="M22.2071 15.1568L15.8431 8.79288C15.4526 8.40236 14.8195 8.40236 14.4289 8.79288L8.06497 15.1568C7.67445 15.5474 7.67445 16.1805 8.06497 16.5711C8.4555 16.9616 9.08866 16.9616 9.47919 16.5711L15.136 11L20.7929 16.5711C21.1834 16.9616 21.8166 16.9616 22.2071 16.5711C22.5976 16.1805 22.5976 15.5474 22.2071 15.1568Z" fill="white"/>
<path fill-rule="evenodd" clip-rule="evenodd" d="M22.2071 22.5711L15.8431 28.935C15.4526 29.3255 14.8195 29.3255 14.4289 28.935L8.06497 22.5711C7.67445 22.1805 7.67445 21.5474 8.06497 21.1568C8.4555 20.7663 9.08866 20.7663 9.47919 21.1568L15.136 26.7279L20.7929 21.1568C21.1834 20.7663 21.8166 20.7663 22.2071 21.1568C22.5976 21.5474 22.5976 22.1805 22.2071 22.5711Z" fill="white"/>
</svg>
