<svg width="26" height="26" viewBox="0 0 26 26" fill="none" xmlns="http://www.w3.org/2000/svg">
<path fill-rule="evenodd" clip-rule="evenodd" d="M12.3744 7.07107C13.9365 5.50895 16.4692 5.50897 18.0312 7.07107C19.5933 8.63316 19.5934 11.1658 18.0312 12.7279C16.4691 14.29 13.9365 14.29 12.3744 12.7279C10.8123 11.1658 10.8123 8.63318 12.3744 7.07107ZM20.1526 4.94975C17.4189 2.21607 12.9867 2.2161 10.2531 4.94975C7.88351 7.31931 7.56786 10.9652 9.30631 13.6747L4.94977 18.0312C4.36398 18.617 4.36398 19.5668 4.94977 20.1525C5.53556 20.7383 6.4853 20.7383 7.07109 20.1525L11.4276 15.796C14.1371 17.5344 17.783 17.2188 20.1526 14.8492C22.8862 12.1156 22.8862 7.68342 20.1526 4.94975Z" fill="#e1e1e1"/>
</svg>
