<svg width="24" height="24" viewBox="0 0 24 24" fill="none" xmlns="http://www.w3.org/2000/svg">
<path fill-rule="evenodd" clip-rule="evenodd" d="M10.864 7.17157C12.4261 5.60945 14.9587 5.60947 16.5208 7.17157C18.0829 8.73366 18.0829 11.2663 16.5208 12.8284C14.9587 14.3905 12.4261 14.3905 10.864 12.8284C9.30187 11.2663 9.30185 8.73368 10.864 7.17157ZM18.6421 5.05025C15.9085 2.31657 11.4763 2.3166 8.74264 5.05025C6.37308 7.41981 6.05743 11.0657 7.79588 13.7752L3.43934 18.1317C2.85355 18.7175 2.85355 19.6673 3.43934 20.253C4.02513 20.8388 4.97487 20.8388 5.56066 20.253L9.9172 15.8965C12.6267 17.6349 16.2726 17.3193 18.6421 14.9497C21.3758 12.2161 21.3758 7.78392 18.6421 5.05025Z" fill="#466CAE"/>
</svg>
