<svg width="142" height="43" viewBox="0 0 142 43" fill="none" xmlns="http://www.w3.org/2000/svg">
<path d="M19.5189 22.0434L19.6405 6.85255H19.5493L13.9551 22.0434H10.3067L4.86452 6.85255H4.77331L4.89493 22.0434H0V0.576101H7.388L12.2829 14.3418H12.4045L17.0866 0.576101H24.5963V22.0434H19.5189Z" fill="#466CAE"/>
<path d="M52.0832 11.2188C52.0832 12.9167 51.7893 14.4732 51.2015 15.8882C50.6137 17.283 49.7928 18.4857 48.7388 19.4964C47.7051 20.4869 46.4687 21.255 45.0296 21.8008C43.5905 22.3466 42.0298 22.6195 40.3475 22.6195C38.6652 22.6195 37.1045 22.3466 35.6654 21.8008C34.2466 21.255 33.0102 20.4869 31.9562 19.4964C30.9225 18.4857 30.1118 17.283 29.524 15.8882C28.9362 14.4732 28.6423 12.9167 28.6423 11.2188C28.6423 9.50058 28.9362 7.95421 29.524 6.57966C30.1118 5.18489 30.9225 4.00237 31.9562 3.0321C33.0102 2.06183 34.2466 1.31391 35.6654 0.788347C37.1045 0.262782 38.6652 0 40.3475 0C42.0298 0 43.5905 0.262782 45.0296 0.788347C46.4687 1.31391 47.7051 2.06183 48.7388 3.0321C49.7928 4.00237 50.6137 5.18489 51.2015 6.57966C51.7893 7.95421 52.0832 9.50058 52.0832 11.2188ZM46.5194 11.2188C46.5194 10.2889 46.3674 9.41973 46.0633 8.61117C45.7593 7.80261 45.3337 7.11533 44.7864 6.54934C44.2594 5.96313 43.6108 5.50832 42.8406 5.18489C42.0906 4.84125 41.2596 4.66944 40.3475 4.66944C39.4354 4.66944 38.6044 4.84125 37.8545 5.18489C37.1045 5.50832 36.4559 5.96313 35.9086 6.54934C35.3614 7.11533 34.9357 7.80261 34.6317 8.61117C34.3479 9.41973 34.2061 10.2889 34.2061 11.2188C34.2061 12.189 34.3581 13.0886 34.6621 13.9173C34.9661 14.7259 35.3817 15.4233 35.9086 16.0095C36.4559 16.5957 37.1045 17.0606 37.8545 17.4043C38.6044 17.7277 39.4354 17.8894 40.3475 17.8894C41.2596 17.8894 42.0906 17.7277 42.8406 17.4043C43.5905 17.0606 44.2391 16.5957 44.7864 16.0095C45.3337 15.4233 45.7593 14.7259 46.0633 13.9173C46.3674 13.0886 46.5194 12.189 46.5194 11.2188Z" fill="#466CAE"/>
<path d="M75.0555 19.0719C74.1028 20.1635 72.9273 21.0327 71.5287 21.6795C70.1302 22.3062 68.5188 22.6195 66.6946 22.6195C65.0325 22.6195 63.4921 22.3466 62.0733 21.8008C60.6747 21.255 59.4586 20.4869 58.4249 19.4964C57.3912 18.4857 56.5804 17.283 55.9926 15.8882C55.4048 14.4934 55.1109 12.9572 55.1109 11.2794C55.1109 9.56122 55.4048 8.00475 55.9926 6.60998C56.6007 5.21521 57.4317 4.03269 58.4857 3.06242C59.5397 2.07194 60.7761 1.31391 62.1949 0.788347C63.6137 0.262782 65.144 0 66.7858 0C68.306 0 69.7957 0.272889 71.2551 0.818667C72.7347 1.34423 73.9306 2.12247 74.8427 3.15338L71.3159 6.67062C70.8294 6.00356 70.191 5.50832 69.4005 5.18489C68.61 4.86147 67.7992 4.69976 66.9682 4.69976C66.0561 4.69976 65.215 4.87158 64.4447 5.21521C63.6948 5.53864 63.0462 5.99345 62.4989 6.57966C61.9517 7.16586 61.526 7.86325 61.222 8.67181C60.918 9.46015 60.7659 10.3294 60.7659 11.2794C60.7659 12.2497 60.918 13.1391 61.222 13.9477C61.526 14.7562 61.9415 15.4536 62.4685 16.0398C63.0158 16.6058 63.6644 17.0505 64.4143 17.3739C65.1643 17.6974 65.9852 17.8591 66.877 17.8591C67.9107 17.8591 68.8127 17.6569 69.5829 17.2526C70.3531 16.8484 70.9713 16.3228 71.4375 15.676L75.0555 19.0719Z" fill="#466CAE"/>
<path d="M77.8918 22.0434V0.576101H83.0603V8.3686C83.3441 8.3686 83.6177 8.3787 83.8812 8.39892C84.165 8.39892 84.4386 8.40902 84.7021 8.42924L91.2996 0.576101H96.9546L89.7491 9.64208C90.6612 10.0868 91.5023 10.6629 92.2725 11.3704C93.0427 12.0577 93.742 12.9066 94.3704 13.9173C94.9987 14.928 95.546 16.1106 96.0121 17.4649C96.4783 18.799 96.8736 20.3252 97.1979 22.0434H91.5429C91.2388 20.406 90.8537 18.9911 90.3875 17.7984C89.9416 16.6058 89.3842 15.6355 88.7153 14.8876C88.0465 14.1195 87.2459 13.5636 86.3135 13.22C85.3811 12.8561 84.2967 12.6944 83.0603 12.7348V22.0434H77.8918Z" fill="#466CAE"/>
<path d="M116.957 15.7972C116.957 16.9697 116.724 17.9601 116.257 18.7687C115.791 19.557 115.173 20.1938 114.403 20.6789C113.633 21.1641 112.751 21.5178 111.758 21.7402C110.785 21.9423 109.781 22.0434 108.748 22.0434H100.174V0.576101H108.748C109.579 0.576101 110.43 0.667063 111.302 0.848988C112.173 1.0107 112.964 1.3038 113.673 1.7283C114.383 2.13258 114.96 2.68846 115.406 3.39595C115.852 4.10344 116.075 5.00297 116.075 6.09452C116.075 7.28715 115.751 8.27763 115.102 9.06598C114.453 9.83411 113.602 10.39 112.548 10.7336V10.7943C113.156 10.8953 113.724 11.0874 114.251 11.3704C114.798 11.6332 115.264 11.9768 115.649 12.4013C116.055 12.8258 116.369 13.321 116.592 13.887C116.835 14.453 116.957 15.0898 116.957 15.7972ZM111.058 6.7919C111.058 6.0642 110.775 5.53864 110.207 5.21521C109.66 4.87158 108.839 4.69976 107.744 4.69976H105.191V9.12662H107.988C108.961 9.12662 109.711 8.93459 110.238 8.55052C110.785 8.14624 111.058 7.56004 111.058 6.7919ZM111.758 15.3121C111.758 14.4227 111.423 13.8062 110.754 13.4625C110.086 13.1189 109.194 12.9471 108.079 12.9471H105.191V17.8591H108.109C108.515 17.8591 108.93 17.8287 109.356 17.7681C109.802 17.6873 110.197 17.5559 110.542 17.3739C110.906 17.192 111.2 16.9393 111.423 16.6159C111.646 16.2723 111.758 15.8377 111.758 15.3121Z" fill="#466CAE"/>
<path d="M124.011 22.0434H118.356L127.386 0.576101H132.433L141.372 22.0434H135.595L133.923 17.8288H125.592L124.011 22.0434ZM127.082 13.6748H132.494L129.818 6.30677L127.082 13.6748Z" fill="#466CAE"/>
<path d="M1.47245 40.6053H0V29.8055H6.26928V31.1174H1.47245V40.6053Z" fill="#466CAE"/>
<path d="M18.723 35.1902C18.723 36.0241 18.5814 36.7918 18.298 37.4935C18.0146 38.185 17.62 38.785 17.114 39.2935C16.608 39.7918 16.0058 40.1833 15.3076 40.468C14.6194 40.7426 13.8705 40.8799 13.061 40.8799C12.2514 40.8799 11.4974 40.7426 10.7992 40.468C10.111 40.1833 9.51393 39.7918 9.00794 39.2935C8.50194 38.785 8.10726 38.185 7.82391 37.4935C7.54055 36.7918 7.39887 36.0241 7.39887 35.1902C7.39887 34.3563 7.54055 33.5936 7.82391 32.9021C8.10726 32.2106 8.50194 31.6157 9.00794 31.1174C9.51393 30.6191 10.111 30.2326 10.7992 29.9581C11.4974 29.6733 12.2514 29.5309 13.061 29.5309C13.8705 29.5309 14.6194 29.6733 15.3076 29.9581C16.0058 30.2326 16.608 30.6191 17.114 31.1174C17.62 31.6157 18.0146 32.2106 18.298 32.9021C18.5814 33.5936 18.723 34.3563 18.723 35.1902ZM17.1595 35.1902C17.1595 34.6003 17.0634 34.0461 16.8711 33.5275C16.6788 32.9987 16.4056 32.536 16.0514 32.1394C15.6972 31.7428 15.2671 31.4275 14.7611 31.1936C14.2551 30.9597 13.6884 30.8428 13.061 30.8428C12.4335 30.8428 11.8668 30.9597 11.3608 31.1936C10.8548 31.4275 10.4247 31.7428 10.0705 32.1394C9.71633 32.536 9.44309 32.9987 9.25081 33.5275C9.05853 34.0461 8.9624 34.6003 8.9624 35.1902C8.9624 35.7902 9.05853 36.3546 9.25081 36.8834C9.44309 37.4122 9.71633 37.8749 10.0705 38.2715C10.4247 38.6681 10.8548 38.9833 11.3608 39.2172C11.8668 39.4409 12.4335 39.5528 13.061 39.5528C13.6884 39.5528 14.2551 39.4409 14.7611 39.2172C15.2671 38.9833 15.6972 38.6681 16.0514 38.2715C16.4056 37.8749 16.6788 37.4122 16.8711 36.8834C17.0634 36.3546 17.1595 35.7902 17.1595 35.1902Z" fill="#466CAE"/>
<path d="M20.8575 29.8055H24.1211C24.6777 29.8055 25.1888 29.8665 25.6543 29.9886C26.1198 30.1004 26.5196 30.2784 26.8535 30.5225C27.1875 30.7665 27.4455 31.0767 27.6277 31.4529C27.8098 31.8292 27.9009 32.2767 27.9009 32.7953C27.9009 33.3139 27.8048 33.7665 27.6125 34.1529C27.4202 34.5292 27.152 34.8444 26.808 35.0986C26.474 35.3427 26.0692 35.5258 25.5936 35.6478C25.1281 35.7698 24.6221 35.8308 24.0756 35.8308H22.3299V40.6053H20.8575V29.8055ZM22.3299 34.6105H23.9845C24.7435 34.6105 25.3355 34.4631 25.7606 34.1682C26.1957 33.8732 26.4133 33.4207 26.4133 32.8105C26.4133 32.1801 26.1957 31.7275 25.7606 31.4529C25.3254 31.1784 24.7384 31.0411 23.9997 31.0411H22.3299V34.6105Z" fill="#466CAE"/>
<path d="M40.6478 35.1902C40.6478 36.0241 40.5062 36.7918 40.2228 37.4935C39.9394 38.185 39.5448 38.785 39.0388 39.2935C38.5328 39.7918 37.9306 40.1833 37.2324 40.468C36.5442 40.7426 35.7953 40.8799 34.9858 40.8799C34.1762 40.8799 33.4222 40.7426 32.724 40.468C32.0358 40.1833 31.4387 39.7918 30.9327 39.2935C30.4267 38.785 30.0321 38.185 29.7487 37.4935C29.4653 36.7918 29.3237 36.0241 29.3237 35.1902C29.3237 34.3563 29.4653 33.5936 29.7487 32.9021C30.0321 32.2106 30.4267 31.6157 30.9327 31.1174C31.4387 30.6191 32.0358 30.2326 32.724 29.9581C33.4222 29.6733 34.1762 29.5309 34.9858 29.5309C35.7953 29.5309 36.5442 29.6733 37.2324 29.9581C37.9306 30.2326 38.5328 30.6191 39.0388 31.1174C39.5448 31.6157 39.9394 32.2106 40.2228 32.9021C40.5062 33.5936 40.6478 34.3563 40.6478 35.1902ZM39.0843 35.1902C39.0843 34.6003 38.9882 34.0461 38.7959 33.5275C38.6036 32.9987 38.3304 32.536 37.9762 32.1394C37.622 31.7428 37.1919 31.4275 36.6859 31.1936C36.1799 30.9597 35.6132 30.8428 34.9858 30.8428C34.3583 30.8428 33.7916 30.9597 33.2856 31.1936C32.7796 31.4275 32.3495 31.7428 31.9953 32.1394C31.6411 32.536 31.3679 32.9987 31.1756 33.5275C30.9833 34.0461 30.8872 34.6003 30.8872 35.1902C30.8872 35.7902 30.9833 36.3546 31.1756 36.8834C31.3679 37.4122 31.6411 37.8749 31.9953 38.2715C32.3495 38.6681 32.7796 38.9833 33.2856 39.2172C33.7916 39.4409 34.3583 39.5528 34.9858 39.5528C35.6132 39.5528 36.1799 39.4409 36.6859 39.2172C37.1919 38.9833 37.622 38.6681 37.9762 38.2715C38.3304 37.8749 38.6036 37.4122 38.7959 36.8834C38.9882 36.3546 39.0843 35.7902 39.0843 35.1902Z" fill="#466CAE"/>
<path d="M42.7671 40.6053V42.7256H41.4161V39.2935H42.8733L46.4406 29.8055H47.8675L51.3892 39.2935H52.8769V42.7256H51.5107V40.6053H42.7671ZM44.3762 39.2935H49.8561L47.1085 31.4682L44.3762 39.2935Z" fill="#466CAE"/>
<path d="M61.3462 39.2935C62.1051 39.2935 62.7022 39.1308 63.1374 38.8054C63.5827 38.4799 63.8053 38.0223 63.8053 37.4325C63.8053 36.8122 63.5776 36.3546 63.1222 36.0596C62.6769 35.7647 62.09 35.6173 61.3613 35.6173H59.479V39.2935H61.3462ZM58.0066 40.6053V29.8055H64.5036V31.1174H59.479V34.3054H61.4828C62.0394 34.3054 62.5454 34.3715 63.0008 34.5037C63.4663 34.6359 63.866 34.8342 64.2 35.0986C64.5339 35.363 64.792 35.6885 64.9741 36.0749C65.1563 36.4613 65.2474 36.9139 65.2474 37.4325C65.2474 37.9511 65.1512 38.4088 64.959 38.8054C64.7667 39.202 64.4985 39.5376 64.1544 39.8121C63.8205 40.0765 63.4207 40.2748 62.9552 40.407C62.4897 40.5392 61.9837 40.6053 61.4372 40.6053H58.0066Z" fill="#466CAE"/>
<path d="M68.0708 29.8055L71.2434 36.4563L74.2946 29.8055H75.934L71.9417 38.2562C71.7595 38.6325 71.5673 38.9782 71.3649 39.2935C71.1625 39.5986 70.9348 39.8681 70.6818 40.102C70.4288 40.3257 70.1404 40.4986 69.8165 40.6206C69.5028 40.7528 69.1385 40.8189 68.7236 40.8189C68.258 40.8189 67.8937 40.763 67.6306 40.6511C67.3776 40.5494 67.1702 40.4426 67.0082 40.3308L67.7824 39.1715C67.8937 39.2528 68.0405 39.3342 68.2226 39.4155C68.4048 39.4969 68.6274 39.5376 68.8905 39.5376C69.2144 39.5376 69.4977 39.4206 69.7406 39.1867C69.9835 38.9426 70.2213 38.5969 70.4541 38.1494L66.4314 29.8055H68.0708Z" fill="#466CAE"/>
<path d="M77.3368 40.6053V42.7256H75.9858V39.2935H77.4431L81.0103 29.8055H82.4373L85.959 39.2935H87.4466V42.7256H86.0804V40.6053H77.3368ZM78.9459 39.2935H84.4258L81.6783 31.4682L78.9459 39.2935Z" fill="#466CAE"/>
<path d="M89.3582 29.8055L92.5308 36.4563L95.5819 29.8055H97.2214L93.2291 38.2562C93.0469 38.6325 92.8546 38.9782 92.6522 39.2935C92.4498 39.5986 92.2221 39.8681 91.9691 40.102C91.7161 40.3257 91.4277 40.4986 91.1039 40.6206C90.7902 40.7528 90.4258 40.8189 90.0109 40.8189C89.5454 40.8189 89.1811 40.763 88.918 40.6511C88.665 40.5494 88.4575 40.4426 88.2956 40.3308L89.0698 39.1715C89.1811 39.2528 89.3278 39.3342 89.51 39.4155C89.6922 39.4969 89.9148 39.5376 90.1779 39.5376C90.5017 39.5376 90.7851 39.4206 91.028 39.1867C91.2709 38.9426 91.5087 38.5969 91.7414 38.1494L87.7188 29.8055H89.3582Z" fill="#466CAE"/>
<path d="M98.6394 40.6053V29.8055H100.112V39.2935H104.15V29.8055H105.622V39.2935H109.523V29.8055H111.011V39.2935H112.438V42.7256H111.087V40.6053H98.6394Z" fill="#466CAE"/>
<path d="M115.676 39.3087H121.247V40.6053H114.234V29.8055H121.035V31.1021H115.676V34.3817H120.701V35.6325H115.676V39.3087Z" fill="#466CAE"/>
<path d="M124.749 40.6053H123.277V29.8055H129.546V31.1174H124.749V40.6053Z" fill="#466CAE"/>
<path d="M142 35.1902C142 36.0241 141.858 36.7918 141.575 37.4935C141.292 38.185 140.897 38.785 140.391 39.2935C139.885 39.7918 139.283 40.1833 138.585 40.468C137.896 40.7426 137.148 40.8799 136.338 40.8799C135.528 40.8799 134.774 40.7426 134.076 40.468C133.388 40.1833 132.791 39.7918 132.285 39.2935C131.779 38.785 131.384 38.185 131.101 37.4935C130.818 36.7918 130.676 36.0241 130.676 35.1902C130.676 34.3563 130.818 33.5936 131.101 32.9021C131.384 32.2106 131.779 31.6157 132.285 31.1174C132.791 30.6191 133.388 30.2326 134.076 29.9581C134.774 29.6733 135.528 29.5309 136.338 29.5309C137.148 29.5309 137.896 29.6733 138.585 29.9581C139.283 30.2326 139.885 30.6191 140.391 31.1174C140.897 31.6157 141.292 32.2106 141.575 32.9021C141.858 33.5936 142 34.3563 142 35.1902ZM140.436 35.1902C140.436 34.6003 140.34 34.0461 140.148 33.5275C139.956 32.9987 139.683 32.536 139.328 32.1394C138.974 31.7428 138.544 31.4275 138.038 31.1936C137.532 30.9597 136.965 30.8428 136.338 30.8428C135.71 30.8428 135.144 30.9597 134.638 31.1936C134.132 31.4275 133.702 31.7428 133.347 32.1394C132.993 32.536 132.72 32.9987 132.528 33.5275C132.336 34.0461 132.239 34.6003 132.239 35.1902C132.239 35.7902 132.336 36.3546 132.528 36.8834C132.72 37.4122 132.993 37.8749 133.347 38.2715C133.702 38.6681 134.132 38.9833 134.638 39.2172C135.144 39.4409 135.71 39.5528 136.338 39.5528C136.965 39.5528 137.532 39.4409 138.038 39.2172C138.544 38.9833 138.974 38.6681 139.328 38.2715C139.683 37.8749 139.956 37.4122 140.148 36.8834C140.34 36.3546 140.436 35.7902 140.436 35.1902Z" fill="#466CAE"/>
</svg>
